<svg width="1000" height="259" viewBox="0 0 1000 259" fill="none" xmlns="http://www.w3.org/2000/svg">
<path d="M69.9087 34.8966V37.8783C69.9087 39.3627 69.6222 40.782 69.0623 42.1101C68.5024 43.4382 67.7212 44.6231 66.7316 45.6648C65.742 46.7065 64.5702 47.5268 63.242 48.1388C61.9139 48.7507 60.4816 49.0502 58.9452 49.0502C57.63 49.0502 56.3019 48.8679 54.9478 48.5033C53.5936 48.1388 52.3696 47.5138 51.2889 46.6023C50.2082 45.7039 49.3097 44.545 48.6196 43.1127C47.9165 41.6934 47.5649 39.8705 47.5649 37.67V11.1335C47.5649 9.55803 47.8384 8.08667 48.3722 6.7325C48.9061 5.37834 49.6743 4.20646 50.6769 3.21688C51.6665 2.2273 52.8514 1.44604 54.2316 0.886149C55.6118 0.326253 57.1222 0.0397949 58.8019 0.0397949C62.0441 0.0397949 64.6873 1.09448 66.7186 3.21688C67.7082 4.25854 68.4894 5.4825 69.0493 6.90177C69.6092 8.32104 69.8957 9.87052 69.8957 11.5372V14.2455H62.9946V11.9408C62.9946 10.5867 62.604 9.41479 61.8488 8.42521C61.0806 7.43563 60.0389 6.94084 58.7368 6.94084C57.0181 6.94084 55.8853 7.47469 55.3123 8.52938C54.7524 9.58407 54.466 10.9382 54.466 12.5528V37.1882C54.466 38.5815 54.7655 39.7664 55.3774 40.7039C55.9894 41.6544 57.0832 42.1231 58.6587 42.1231C59.1144 42.1231 59.5962 42.045 60.117 41.8888C60.6379 41.7325 61.1196 41.4721 61.5754 41.1075C61.979 40.7429 62.3175 40.2481 62.591 39.6231C62.8644 38.9851 62.9946 38.2039 62.9946 37.2533V34.8835H69.8957L69.9087 34.8966Z" fill="#231815"/>
<path d="M109.362 48.6325V0.442383H120.456C128.581 0.442383 132.63 5.15592 132.63 14.583C132.63 17.4215 132.187 19.8434 131.315 21.8226C130.43 23.8148 128.893 25.4163 126.68 26.6273L134.127 48.6195H126.823L120.39 28.0466H116.263V48.6195H109.362V48.6325ZM116.263 6.93978V21.9658H120.182C121.406 21.9658 122.37 21.7966 123.099 21.458C123.815 21.1195 124.388 20.6377 124.792 19.9997C125.156 19.3617 125.403 18.5934 125.534 17.6689C125.664 16.7445 125.742 15.6768 125.742 14.4528C125.742 13.2288 125.677 12.1611 125.534 11.2367C125.403 10.3122 125.13 9.50488 124.726 8.8278C123.867 7.56478 122.239 6.92676 119.857 6.92676H116.263V6.93978Z" fill="#231815"/>
<path d="M168.919 48.6325L179.687 0.442383H185.442L196.211 48.6325H189.31L187.278 38.2809H177.877L175.846 48.6325H168.945H168.919ZM185.976 31.7835L182.591 14.3226H182.461L179.075 31.7835H185.976Z" fill="#231815"/>
<path d="M231.185 48.6325V42.5387L244.179 6.93978H231.862V0.442383H251.692V5.92415L238.424 42.1351H251.692V48.6325H231.185Z" fill="#231815"/>
<path d="M296.224 48.6325V28.2679L286.745 0.442383H294.049L299.596 19.596H299.726L305.299 0.442383H312.604L303.125 28.2549V48.6195H296.224V48.6325Z" fill="#231815"/>
<path d="M396.315 48.6325V0.442383H416.888V6.93978H403.216V21.5622H415.13V28.0596H403.216V48.6325H396.315Z" fill="#231815"/>
<path d="M454.792 11.8097C454.792 9.86955 455.13 8.1508 455.807 6.66642C456.484 5.18205 457.383 3.93205 458.515 2.94246C459.596 1.99194 460.833 1.2758 462.2 0.781006C463.581 0.286214 464.961 0.0388184 466.367 0.0388184C467.773 0.0388184 469.153 0.286214 470.534 0.781006C471.914 1.2758 473.164 2.00496 474.284 2.94246C475.364 3.93205 476.25 5.16903 476.927 6.66642C477.604 8.16382 477.943 9.86955 477.943 11.8097V37.2654C477.943 39.2966 477.604 41.0284 476.927 42.4737C476.25 43.919 475.364 45.1169 474.284 46.0675C473.151 47.057 471.901 47.8123 470.534 48.307C469.167 48.8018 467.773 49.0492 466.367 49.0492C464.961 49.0492 463.581 48.8018 462.2 48.307C460.82 47.8123 459.596 47.0701 458.515 46.0675C457.383 45.1169 456.484 43.919 455.807 42.4737C455.13 41.0284 454.792 39.2966 454.792 37.2654V11.8097ZM461.693 37.2524C461.693 38.919 462.148 40.156 463.073 40.9373C463.997 41.7185 465.091 42.1222 466.354 42.1222C467.617 42.1222 468.711 41.7315 469.635 40.9373C470.56 40.143 471.028 38.919 471.028 37.2524V11.8097C471.028 10.143 470.56 8.90601 469.635 8.12476C468.711 7.34351 467.617 6.93986 466.354 6.93986C465.091 6.93986 463.997 7.33049 463.073 8.12476C462.148 8.91903 461.693 10.143 461.693 11.8097V37.2654V37.2524Z" fill="#231815"/>
<path d="M517.864 48.6325V0.442383H528.958C537.083 0.442383 541.146 5.15592 541.146 14.583C541.146 17.4215 540.703 19.8434 539.83 21.8226C538.945 23.8148 537.409 25.4163 535.195 26.6273L542.643 48.6195H535.338L528.906 28.0466H524.778V48.6195H517.877L517.864 48.6325ZM524.765 6.93978V21.9658H528.685C529.909 21.9658 530.872 21.7966 531.588 21.458C532.304 21.1195 532.877 20.6377 533.281 19.9997C533.646 19.3617 533.893 18.5934 534.023 17.6689C534.153 16.7445 534.231 15.6768 534.231 14.4528C534.231 13.2288 534.166 12.1611 534.023 11.2367C533.88 10.3122 533.619 9.50488 533.216 8.8278C532.356 7.56478 530.729 6.92676 528.346 6.92676H524.752L524.765 6.93978Z" fill="#231815"/>
<path d="M649.297 14.3229H642.396V12.7604C642.396 11.1849 642.018 9.81771 641.276 8.67188C640.534 7.52604 639.284 6.9401 637.526 6.9401C636.575 6.9401 635.807 7.1224 635.221 7.48698C634.635 7.85156 634.166 8.29427 633.802 8.84115C633.437 9.42708 633.19 10.0911 633.06 10.8333C632.929 11.5755 632.851 12.3568 632.851 13.1641C632.851 14.1146 632.89 14.9089 632.955 15.5339C633.021 16.1589 633.19 16.7318 633.463 17.2266C633.737 17.7214 634.127 18.151 634.648 18.5156C635.169 18.8802 635.872 19.2318 636.784 19.5964L642.057 21.6927C643.593 22.2786 644.83 22.9687 645.781 23.75C646.731 24.5443 647.474 25.4557 648.008 26.4974C648.502 27.5781 648.841 28.8151 649.023 30.1823C649.205 31.5495 649.297 33.125 649.297 34.8828C649.297 36.9141 649.088 38.8021 648.685 40.5339C648.281 42.2656 647.63 43.75 646.718 44.9609C645.768 46.224 644.531 47.2135 642.994 47.9427C641.458 48.6589 639.583 49.0234 637.383 49.0234C635.716 49.0234 634.153 48.724 632.708 48.138C631.263 47.5521 630.026 46.7448 628.984 45.7031C627.942 44.6615 627.122 43.4635 626.51 42.0833C625.898 40.7031 625.599 39.2057 625.599 37.5781V35H632.5V37.1615C632.5 38.4245 632.864 39.5703 633.619 40.5859C634.362 41.6016 635.612 42.1094 637.369 42.1094C638.541 42.1094 639.453 41.9401 640.117 41.6016C640.768 41.263 641.276 40.7812 641.64 40.1432C642.005 39.5052 642.213 38.75 642.278 37.8776C642.343 36.9922 642.383 36.0156 642.383 34.9349C642.383 33.6719 642.33 32.6302 642.252 31.8229C642.161 31.0156 641.979 30.3516 641.705 29.8568C641.393 29.362 640.976 28.9583 640.455 28.6328C639.935 28.3203 639.244 27.9818 638.398 27.6172L633.463 25.5859C630.481 24.375 628.489 22.7604 627.474 20.7422C626.458 18.737 625.95 16.224 625.95 13.2031C625.95 11.3932 626.198 9.6875 626.692 8.0599C627.187 6.43229 627.929 5.03906 628.932 3.86719C629.882 2.69531 631.08 1.75781 632.552 1.05469C634.023 0.351562 635.768 0 637.799 0C639.518 0 641.08 0.3125 642.5 0.950521C643.919 1.58854 645.143 2.42187 646.185 3.45052C648.255 5.61198 649.297 8.09896 649.297 10.8984V14.2839V14.3229Z" fill="#231815"/>
<path d="M688.281 48.6325V0.442383H698.633C700.534 0.442383 702.201 0.689779 703.646 1.18457C705.091 1.67936 706.393 2.56478 707.565 3.8278C708.737 5.09082 709.557 6.5752 710 8.2679C710.456 9.96061 710.677 12.2523 710.677 15.1299C710.677 17.2913 710.547 19.1273 710.3 20.6117C710.052 22.096 709.518 23.5023 708.711 24.8044C707.76 26.3799 706.497 27.6169 704.922 28.4893C703.346 29.3747 701.263 29.8044 698.698 29.8044H695.182V48.6195H688.281V48.6325ZM695.182 6.93978V23.32H698.503C699.896 23.32 700.977 23.1117 701.745 22.708C702.513 22.3044 703.073 21.7445 703.438 21.0153C703.802 20.3382 704.01 19.5049 704.076 18.5153C704.141 17.5257 704.18 16.4189 704.18 15.195C704.18 14.0622 704.154 12.9945 704.115 11.9788C704.076 10.9632 703.867 10.0778 703.503 9.30957C703.138 8.54134 702.604 7.9554 701.875 7.55176C701.146 7.14811 700.117 6.93978 698.763 6.93978H695.169H695.182Z" fill="#231815"/>
<path d="M749.258 11.8097C749.258 9.86955 749.596 8.1508 750.273 6.66642C750.951 5.18205 751.849 3.93205 752.982 2.94246C754.062 1.99194 755.299 1.2758 756.667 0.781006C758.047 0.286214 759.427 0.0388184 760.833 0.0388184C762.24 0.0388184 763.62 0.286214 765 0.781006C766.38 1.2758 767.63 2.00496 768.75 2.94246C769.831 3.93205 770.716 5.16903 771.393 6.66642C772.07 8.1508 772.409 9.86955 772.409 11.8097V37.2654C772.409 39.2966 772.07 41.0284 771.393 42.4737C770.716 43.919 769.831 45.1169 768.75 46.0675C767.617 47.057 766.367 47.8123 765 48.307C763.633 48.8018 762.24 49.0492 760.833 49.0492C759.427 49.0492 758.047 48.8018 756.667 48.307C755.286 47.8123 754.062 47.0701 752.982 46.0675C751.849 45.1169 750.951 43.919 750.273 42.4737C749.596 41.0284 749.258 39.2966 749.258 37.2654V11.8097ZM756.159 37.2524C756.159 38.919 756.615 40.156 757.539 40.9373C758.464 41.7185 759.557 42.1222 760.82 42.1222C762.083 42.1222 763.177 41.7315 764.102 40.9373C765.026 40.143 765.495 38.919 765.495 37.2524V11.8097C765.495 10.143 765.026 8.90601 764.102 8.12476C763.177 7.33049 762.083 6.93986 760.82 6.93986C759.557 6.93986 758.464 7.33049 757.539 8.12476C756.615 8.91903 756.159 10.143 756.159 11.8097V37.2654V37.2524Z" fill="#231815"/>
<path d="M812.331 48.6325V0.442383H823.424C831.549 0.442383 835.612 5.15592 835.612 14.583C835.612 17.4215 835.169 19.8434 834.297 21.8226C833.411 23.8148 831.875 25.4163 829.661 26.6273L837.109 48.6195H829.805L823.372 28.0466H819.245V48.6195H812.344L812.331 48.6325ZM819.232 6.93978V21.9658H823.151C824.375 21.9658 825.338 21.7966 826.054 21.458C826.771 21.1195 827.344 20.6377 827.747 19.9997C828.112 19.3617 828.359 18.5934 828.489 17.6689C828.62 16.7445 828.698 15.6768 828.698 14.4528C828.698 13.2288 828.633 12.1611 828.489 11.2367C828.359 10.3122 828.086 9.50488 827.682 8.8278C826.823 7.56478 825.195 6.92676 822.812 6.92676H819.219L819.232 6.93978Z" fill="#231815"/>
<path d="M878.307 48.6325V6.93978H870.325V0.442383H893.203V6.93978H885.221V48.6325H878.32H878.307Z" fill="#231815"/>
<path d="M952.422 14.3229H945.52V12.7604C945.52 11.1849 945.143 9.81771 944.401 8.67188C943.659 7.52604 942.408 6.9401 940.651 6.9401C939.7 6.9401 938.932 7.1224 938.346 7.48698C937.76 7.85156 937.291 8.29427 936.927 8.84115C936.562 9.42708 936.315 10.0911 936.185 10.8333C936.054 11.5755 935.976 12.3568 935.976 13.1641C935.976 14.1146 936.015 14.9089 936.08 15.5339C936.145 16.1589 936.315 16.7318 936.588 17.2266C936.862 17.7214 937.252 18.151 937.773 18.5156C938.294 18.8802 938.997 19.2318 939.908 19.5964L945.182 21.6927C946.718 22.2786 947.955 22.9687 948.906 23.75C949.856 24.5443 950.599 25.4557 951.132 26.4974C951.627 27.5781 951.966 28.8151 952.148 30.1823C952.33 31.5625 952.422 33.125 952.422 34.8828C952.422 36.9141 952.213 38.8021 951.81 40.5339C951.406 42.2656 950.755 43.75 949.843 44.9609C948.893 46.224 947.656 47.2135 946.119 47.9427C944.583 48.6589 942.708 49.0234 940.507 49.0234C938.841 49.0234 937.278 48.724 935.833 48.138C934.388 47.5521 933.151 46.7448 932.109 45.7031C931.067 44.6615 930.247 43.4635 929.635 42.0833C929.023 40.7031 928.724 39.2057 928.724 37.5781V35H935.625V37.1615C935.625 38.4245 935.989 39.5703 936.744 40.5859C937.487 41.6016 938.737 42.1094 940.494 42.1094C941.666 42.1094 942.578 41.9401 943.242 41.6016C943.893 41.263 944.401 40.7812 944.765 40.1432C945.13 39.5052 945.338 38.75 945.403 37.8776C945.468 36.9922 945.508 36.0156 945.508 34.9349C945.508 33.6719 945.455 32.6302 945.377 31.8229C945.286 31.0156 945.104 30.3516 944.83 29.8568C944.518 29.362 944.101 28.9583 943.58 28.6328C943.06 28.3203 942.369 27.9818 941.523 27.6172L936.588 25.5859C933.606 24.375 931.614 22.7604 930.599 20.7422C929.583 18.737 929.075 16.224 929.075 13.2031C929.075 11.3932 929.323 9.6875 929.817 8.0599C930.312 6.43229 931.054 5.03906 932.057 3.86719C933.007 2.69531 934.205 1.75781 935.677 1.05469C937.148 0.351562 938.893 0 940.924 0C942.643 0 944.205 0.3125 945.625 0.950521C947.044 1.58854 948.268 2.42187 949.31 3.45052C951.38 5.61198 952.422 8.09896 952.422 10.8984V14.2839V14.3229Z" fill="#231815"/>
<path d="M52.0182 117.643H130V141.497H145.026V117.643V112.93H130H52.0182H36.9922V117.643V141.497H52.0182V117.643Z" fill="black"/>
<path d="M99.6224 197.37H139.193V156.029H99.6224V143.346H124.167V135.977H111.758V139.245H99.6224V122.917H84.5964V139.245H59.2708V143.346H84.5964V156.029H45.1172V197.37H84.5964V213.346H45.4818V217.448H84.5964V239.01H99.6224V217.448H139.193V209.779H120.82V213.346H99.6224V197.37ZM99.6224 193.893V180.091H124.167V193.893H99.6224ZM124.167 159.518V176.615H99.6224V159.518H124.167ZM60.1432 159.518H84.5964V176.615H60.1432V159.518ZM60.1432 193.893V180.091H84.5964V193.893H60.1432Z" fill="black"/>
<path d="M139.674 244.805H43.3984L30.1823 225.469V176.706H30.1302H15.1563H0.195313V180.182H15.1563V237.187L0 254.245L2.60417 256.549L26.9401 229.18L46.6667 258.047L46.7057 258.021L46.7188 258.047H133.698L151.068 235.937L148.333 233.789L139.674 244.805Z" fill="black"/>
<path d="M587.487 234.062L579.349 244.427H469.323V224.661V213.229V179.076V175.586H454.297H439.401V179.076H454.297V235.807L437.617 254.57L440.221 256.888L465.846 228.06V244.427V254.297V256.654V257.669H573.372L573.385 257.643L590.234 236.211L587.487 234.062Z" fill="black"/>
<path d="M333.828 138.737V113.737H318.802V138.737H304.844V142.838H318.802V203.971L290.651 255.924C290.169 256.836 291.419 257.656 292.057 256.849L333.828 206.601V142.825H354.505V241.523L338.62 255.247C337.721 256.211 337.89 257.591 339.765 257.057L369.531 242.109V138.737H333.828Z" fill="black"/>
<path d="M772.839 213.698H705.482V256.198H787.865V213.698H772.839ZM720.508 252.096V217.8H772.839V252.096H720.508Z" fill="black"/>
<path d="M710.664 194.375H764.987H783.008V190.273V186.914H764.987V190.273H710.664V194.375Z" fill="black"/>
<path d="M783.008 170.364V166.263V162.904H764.987V166.263H710.664V170.364H764.987H783.008Z" fill="black"/>
<path d="M779.284 142.096H695.807V146.198H779.284H797.305V142.096V138.737H779.284V142.096Z" fill="black"/>
<path d="M783.008 121.523V117.422V114.062H764.987V117.422H710.664V121.523H764.987H783.008Z" fill="black"/>
<path d="M20.5466 156.029L30.13 141.498L4.02321 113.542C3.11175 112.565 1.54925 113.607 2.0831 114.831L20.5336 156.042L20.5466 156.029Z" fill="black"/>
<path d="M469.101 156.419L478.685 141.888L452.578 113.932C451.666 112.956 450.104 113.997 450.638 115.221L469.088 156.432L469.101 156.419Z" fill="black"/>
<path d="M909.961 188.034L888.412 166.576L903.542 144.167V139.792H887.461V110.208H872.435V139.792H853.32V144.167H887.044L851.016 218.451C849.584 221.172 850.026 222.617 853.203 218.75L872.435 190.261V257.162H887.461V170.938L901.354 204.245L909.974 188.047L909.961 188.034Z" fill="black"/>
<path d="M224.74 242.018V258.112L295.195 229.075C296.758 228.385 296.367 227.018 294.688 227.474L268.49 232.93V217.786H297.5V209.648H285V213.685H268.49V198.541H297.539V156.146H268.49V142.851H297.5V135H285V138.75H268.49V123.971L292.591 120.117V105.065L225.13 129.206C224.167 129.557 224.531 131.002 225.547 130.833L253.477 126.367V138.75H224.466V142.851H253.477V156.146H224.466V198.541H253.477V213.685H224.466V217.786H253.477V236.068L224.753 242.044L224.74 242.018ZM268.49 195.039V179.062H282.513V195.039H268.49ZM282.513 159.609V175.586H268.49V159.609H282.513ZM239.479 159.609H253.464V175.586H239.479V159.609ZM239.479 195.039V179.062H253.464V195.039H239.479Z" fill="black"/>
<path d="M481.289 238.477C481.693 238.568 482.11 238.347 482.331 238.008L498.867 213.242V203.438H523.36V238.373H538.386V203.438H562.917V224.375H562.995L551.68 236.563C550.781 237.526 550.951 238.906 552.826 238.373L577.943 224.375V148.724H538.164L542.591 144.388L532.305 139.414L569.623 119.662L559.623 110.208L552.292 117.162H490.586V121.263H547.969L530.182 138.125C530.182 138.125 530.065 138.255 530.013 138.32L516.563 131.823C515.456 131.133 513.971 131.745 515.013 133.294L528.763 148.724H483.841V216.563L480.899 236.628C480.703 237.852 480.807 238.373 481.276 238.49L481.289 238.477ZM498.88 199.336V177.643H523.373V199.336H498.88ZM538.399 199.336V177.643H562.93V199.336H538.399ZM562.93 173.542H538.399V152.826H562.93V173.542ZM523.386 152.826V173.542H498.893V152.826H523.386Z" fill="black"/>
<path d="M674.857 113.555L645.534 214.18C644.375 217.747 645 219.505 647.813 214.323L669.492 163.125V257.161H684.518V127.643L690.495 113.542H674.857V113.555Z" fill="black"/>
<path d="M984.792 248.347V252.097H959.258V164.61H981.068H993.946H994.128V156.758H981.068V160.508H959.258V110.208H944.245V160.508H911.107V164.61H944.245V252.097H903.503V256.185H984.792H1000V252.097V248.347H984.792Z" fill="black"/>
</svg>
